<mxfile host="app.diagrams.net" modified="2023-08-15T11:54:01.359Z" agent="Mozilla/5.0 (Macintosh; Intel Mac OS X 10.15; rv:109.0) Gecko/20100101 Firefox/115.0" etag="VMGB_PrhT9PI3dFL6_yU" version="21.6.8" type="device">
  <diagram name="Page-1" id="b3v3-8kZauV1eU9QxeU-">
    <mxGraphModel dx="954" dy="589" grid="1" gridSize="10" guides="1" tooltips="1" connect="1" arrows="1" fold="1" page="1" pageScale="1" pageWidth="850" pageHeight="1100" math="0" shadow="0">
      <root>
        <mxCell id="0" />
        <mxCell id="1" parent="0" />
        <mxCell id="vFFsHo6TZkaKbKqweW_f-1" value="" style="rounded=0;whiteSpace=wrap;html=1;fillColor=none;" parent="1" vertex="1">
          <mxGeometry x="40" y="40" width="250" height="280" as="geometry" />
        </mxCell>
        <mxCell id="vFFsHo6TZkaKbKqweW_f-2" value="Host OS" style="rounded=0;whiteSpace=wrap;html=1;" parent="1" vertex="1">
          <mxGeometry x="50" y="240" width="230" height="30" as="geometry" />
        </mxCell>
        <mxCell id="vFFsHo6TZkaKbKqweW_f-3" value="&lt;div&gt;Hardware&lt;/div&gt;" style="rounded=0;whiteSpace=wrap;html=1;" parent="1" vertex="1">
          <mxGeometry x="50" y="280" width="230" height="30" as="geometry" />
        </mxCell>
        <mxCell id="vFFsHo6TZkaKbKqweW_f-4" value="" style="rounded=0;whiteSpace=wrap;html=1;fillColor=#dae8fc;strokeColor=#6c8ebf;" parent="1" vertex="1">
          <mxGeometry x="210" y="50" width="70" height="100" as="geometry" />
        </mxCell>
        <mxCell id="vFFsHo6TZkaKbKqweW_f-5" value="Libs" style="rounded=1;whiteSpace=wrap;html=1;" parent="1" vertex="1">
          <mxGeometry x="215" y="100" width="60" height="30" as="geometry" />
        </mxCell>
        <mxCell id="vFFsHo6TZkaKbKqweW_f-6" value="App" style="rounded=1;whiteSpace=wrap;html=1;" parent="1" vertex="1">
          <mxGeometry x="215" y="60" width="60" height="30" as="geometry" />
        </mxCell>
        <mxCell id="vFFsHo6TZkaKbKqweW_f-7" value="Host Libraries" style="rounded=0;whiteSpace=wrap;html=1;" parent="1" vertex="1">
          <mxGeometry x="50" y="200" width="230" height="30" as="geometry" />
        </mxCell>
        <mxCell id="vFFsHo6TZkaKbKqweW_f-8" value="Docker Daemon" style="rounded=0;whiteSpace=wrap;html=1;" parent="1" vertex="1">
          <mxGeometry x="50" y="160" width="230" height="30" as="geometry" />
        </mxCell>
        <mxCell id="vFFsHo6TZkaKbKqweW_f-9" value="" style="rounded=0;whiteSpace=wrap;html=1;fillColor=#dae8fc;strokeColor=#6c8ebf;" parent="1" vertex="1">
          <mxGeometry x="130" y="50" width="70" height="100" as="geometry" />
        </mxCell>
        <mxCell id="vFFsHo6TZkaKbKqweW_f-10" value="Libs" style="rounded=1;whiteSpace=wrap;html=1;" parent="1" vertex="1">
          <mxGeometry x="135" y="100" width="60" height="30" as="geometry" />
        </mxCell>
        <mxCell id="vFFsHo6TZkaKbKqweW_f-11" value="App" style="rounded=1;whiteSpace=wrap;html=1;" parent="1" vertex="1">
          <mxGeometry x="135" y="60" width="60" height="30" as="geometry" />
        </mxCell>
        <mxCell id="vFFsHo6TZkaKbKqweW_f-12" value="" style="rounded=0;whiteSpace=wrap;html=1;fillColor=#dae8fc;strokeColor=#6c8ebf;" parent="1" vertex="1">
          <mxGeometry x="50" y="50" width="70" height="100" as="geometry" />
        </mxCell>
        <mxCell id="vFFsHo6TZkaKbKqweW_f-13" value="Libs" style="rounded=1;whiteSpace=wrap;html=1;" parent="1" vertex="1">
          <mxGeometry x="55" y="100" width="60" height="30" as="geometry" />
        </mxCell>
        <mxCell id="vFFsHo6TZkaKbKqweW_f-14" value="App" style="rounded=1;whiteSpace=wrap;html=1;" parent="1" vertex="1">
          <mxGeometry x="55" y="60" width="60" height="30" as="geometry" />
        </mxCell>
        <mxCell id="vFFsHo6TZkaKbKqweW_f-15" value="Container" style="text;html=1;align=center;verticalAlign=middle;resizable=0;points=[];autosize=1;strokeColor=none;fillColor=none;rounded=0;shadow=0;glass=0;imageAspect=1;resizeHeight=1;resizeWidth=1;spacingTop=0;spacingBottom=5;" parent="1" vertex="1">
          <mxGeometry x="45" y="130" width="80" height="30" as="geometry" />
        </mxCell>
        <mxCell id="vFFsHo6TZkaKbKqweW_f-16" value="Container" style="text;html=1;align=center;verticalAlign=middle;resizable=0;points=[];autosize=1;strokeColor=none;fillColor=none;rounded=0;shadow=0;glass=0;imageAspect=1;resizeHeight=1;resizeWidth=1;spacingTop=0;spacingBottom=5;" parent="1" vertex="1">
          <mxGeometry x="125" y="130" width="80" height="30" as="geometry" />
        </mxCell>
        <mxCell id="vFFsHo6TZkaKbKqweW_f-17" value="Container" style="text;html=1;align=center;verticalAlign=middle;resizable=0;points=[];autosize=1;strokeColor=none;fillColor=none;rounded=0;shadow=0;glass=0;imageAspect=1;resizeHeight=0;resizeWidth=0;spacingTop=0;spacingBottom=5;" parent="1" vertex="1">
          <mxGeometry x="205" y="130" width="80" height="30" as="geometry" />
        </mxCell>
      </root>
    </mxGraphModel>
  </diagram>
</mxfile>
